<?xml version="1.0" encoding="UTF-8" standalone="no"?>
<svg
   height="165mm"
   viewBox="0 0 380.00001 165"
   width="380mm"
   version="1.1"
   id="svg6"
   sodipodi:docname="vorlage.svg"
   xml:space="preserve"
   inkscape:version="1.2.2 (b0a8486541, 2022-12-01)"
   xmlns:inkscape="http://www.inkscape.org/namespaces/inkscape"
   xmlns:sodipodi="http://sodipodi.sourceforge.net/DTD/sodipodi-0.dtd"
   xmlns="http://www.w3.org/2000/svg"
   xmlns:svg="http://www.w3.org/2000/svg"><sodipodi:namedview
   id="namedview1191"
   pagecolor="#ffffff"
   bordercolor="#666666"
   borderopacity="1.0"
   inkscape:showpageshadow="2"
   inkscape:pageopacity="0.0"
   inkscape:pagecheckerboard="0"
   inkscape:deskcolor="#d1d1d1"
   inkscape:document-units="mm"
   showgrid="false"
   inkscape:zoom="0.4514745"
   inkscape:cx="532.69897"
   inkscape:cy="402.01606"
   inkscape:window-width="1534"
   inkscape:window-height="831"
   inkscape:window-x="0"
   inkscape:window-y="0"
   inkscape:window-maximized="1"
   inkscape:current-layer="layer2" />
  <defs
   id="defs6" />
  <!--
ABox - A simple Box


This box is kept simple on purpose. If you need more features have a look at the UniversalBox.


Created with Boxes.py (https://boxes.hackerspace-bamberg.de/)
Creation date: 2025-02-23 08:55:50
Command line (remove spaces between dashes): boxes ABox - -x=180.0 - -y=80 - -h=60 - -outside=0 - -bottom_edge=F - -thickness=4 - -inner_corners=backarc
Url: https://boxes.hackerspace-bamberg.de/ABox?FingerJoint_style=rectangular&FingerJoint_surroundingspaces=2.0&FingerJoint_bottom_lip=0.0&FingerJoint_edge_width=1.0&FingerJoint_extra_length=0.0&FingerJoint_finger=2.0&FingerJoint_play=0.0&FingerJoint_space=2.0&FingerJoint_width=1.0&Lid_handle=none&Lid_style=none&Lid_handle_height=8.0&Lid_height=4.0&Lid_play=0.1&x=180.0&y=80&h=60&outside=0&bottom_edge=F&thickness=4&format=svg&tabs=0.0&qr_code=0&debug=0&labels=0&labels=1&reference=100.0&inner_corners=backarc&burn=0.1&language=en&render=1
Url short: https://boxes.hackerspace-bamberg.de/ABox?x=180.0&y=80&h=60&outside=0&bottom_edge=F&thickness=4&inner_corners=backarc
SettingsUrl: https://boxes.hackerspace-bamberg.de/ABox?FingerJoint_style=rectangular&FingerJoint_surroundingspaces=2.0&FingerJoint_bottom_lip=0.0&FingerJoint_edge_width=1.0&FingerJoint_extra_length=0.0&FingerJoint_finger=2.0&FingerJoint_play=0.0&FingerJoint_space=2.0&FingerJoint_width=1.0&Lid_handle=none&Lid_style=none&Lid_handle_height=8.0&Lid_height=4.0&Lid_play=0.1&x=180.0&y=80&h=60&outside=0&bottom_edge=F&thickness=4&format=svg&tabs=0.0&qr_code=0&debug=0&labels=0&labels=1&reference=100.0&inner_corners=backarc&burn=0.1&language=en
SettingsUrl short: https://boxes.hackerspace-bamberg.de/ABox?x=180.0&y=80&h=60&outside=0&bottom_edge=F&thickness=4&inner_corners=backarc
-->
  
  
  
  
  <!--!Font Awesome Free 6.7.2 by @fontawesome - https://fontawesome.com License - https://fontawesome.com/license/free Copyright 2025 Fonticons, Inc.-->
  
  
  
  
  
  
  
  
  
  
  
  
  
<g
   inkscape:groupmode="layer"
   id="layer1"
   inkscape:label="Box"
   sodipodi:insensitive="true"><ellipse
     cx="254.01813"
     cy="-56.258938"
     stroke="#f1f3f5"
     stroke-width="0.7 px"
     style="fill:none;stroke:#a13aa1;stroke-width:0.717949;stroke-linecap:square;stroke-miterlimit:4;stroke-dasharray:none;stroke-opacity:1"
     id="circle3"
     rx="1.6410255"
     ry="1.6410257"
     transform="scale(1,-1)" /><ellipse
     cx="217.92159"
     cy="-56.258938"
     stroke="#f1f3f5"
     stroke-width="0.7 px"
     style="fill:none;stroke:#a13aa1;stroke-width:0.717949;stroke-linecap:square;stroke-miterlimit:4;stroke-dasharray:none;stroke-opacity:1"
     id="circle2"
     rx="1.6410255"
     ry="1.6410257"
     transform="scale(1,-1)" /><circle
     cx="235.96811"
     cy="-56.305473"
     r="13"
     stroke="#f1f3f5"
     stroke-width="0.7 px"
     style="fill:none;stroke:#a13aa1;stroke-width:0.7;stroke-linecap:square;stroke-miterlimit:4;stroke-dasharray:none;stroke-opacity:1"
     id="circle1"
     transform="scale(1,-1)" /><g
     id="p-1"
     style="fill:none;stroke-linecap:round;stroke-linejoin:round"
     transform="rotate(180,194.53335,161.78633)">
    <path
   d="m 14.1,230.6 h 14 c 0.055,0 0.1,-0.045 0.1,-0.1 v -4 c 0,0.055 -0.045,0.1 -0.1,0.1 h 8 c -0.055,0 -0.1,-0.045 -0.1,-0.1 v 4 c 0,0.055 0.045,0.1 0.1,0.1 h 8 c 0.055,0 0.1,-0.045 0.1,-0.1 v -4 c 0,0.055 -0.045,0.1 -0.1,0.1 h 8 c -0.055,0 -0.1,-0.045 -0.1,-0.1 v 4 c 0,0.055 0.045,0.1 0.1,0.1 h 8 c 0.055,0 0.1,-0.045 0.1,-0.1 v -4 c 0,0.055 -0.045,0.1 -0.1,0.1 h 8 c -0.055,0 -0.1,-0.045 -0.1,-0.1 v 4 c 0,0.055 0.045,0.1 0.1,0.1 h 8 c 0.055,0 0.1,-0.045 0.1,-0.1 v -4 c 0,0.055 -0.045,0.1 -0.1,0.1 h 8 c -0.055,0 -0.1,-0.045 -0.1,-0.1 v 4 c 0,0.055 0.045,0.1 0.1,0.1 h 8 c 0.055,0 0.1,-0.045 0.1,-0.1 v -4 c 0,0.055 -0.045,0.1 -0.1,0.1 h 8 c -0.055,0 -0.1,-0.045 -0.1,-0.1 v 4 c 0,0.055 0.045,0.1 0.1,0.1 h 8 c 0.055,0 0.1,-0.045 0.1,-0.1 v -4 c 0,0.055 -0.045,0.1 -0.1,0.1 h 8 c -0.055,0 -0.1,-0.045 -0.1,-0.1 v 4 c 0,0.055 0.045,0.1 0.1,0.1 h 8 c 0.055,0 0.1,-0.045 0.1,-0.1 v -4 c 0,0.055 -0.045,0.1 -0.1,0.1 h 8 c -0.055,0 -0.1,-0.045 -0.1,-0.1 v 4 c 0,0.055 0.045,0.1 0.1,0.1 h 8 c 0.055,0 0.1,-0.045 0.1,-0.1 v -4 c 0,0.055 -0.045,0.1 -0.1,0.1 h 8 c -0.055,0 -0.1,-0.045 -0.1,-0.1 v 4 c 0,0.055 0.045,0.1 0.1,0.1 h 8 c 0.055,0 0.1,-0.045 0.1,-0.1 v -4 c 0,0.055 -0.045,0.1 -0.1,0.1 h 8 c -0.055,0 -0.1,-0.045 -0.1,-0.1 v 4 c 0,0.055 0.045,0.1 0.1,0.1 h 8 c 0.055,0 0.1,-0.045 0.1,-0.1 v -4 c 0,0.055 -0.045,0.1 -0.1,0.1 h 8 c -0.055,0 -0.1,-0.045 -0.1,-0.1 v 4 c 0,0.055 0.045,0.1 0.1,0.1 h 14 4 c 0.055,0 0.1,-0.045 0.1,-0.1 v -12 c 0,-0.055 -0.045,-0.1 -0.1,-0.1 h -4 c 0.055,0 0.1,0.045 0.1,0.1 v -8 c 0,0.055 -0.045,0.1 -0.1,0.1 h 4 c 0.055,0 0.1,-0.045 0.1,-0.1 v -8 c 0,-0.055 -0.045,-0.1 -0.1,-0.1 h -4 c 0.055,0 0.1,0.045 0.1,0.1 v -8 c 0,0.055 -0.045,0.1 -0.1,0.1 h 4 c 0.055,0 0.1,-0.045 0.1,-0.1 v -8 c 0,-0.055 -0.045,-0.1 -0.1,-0.1 h -4 c 0.055,0 0.1,0.045 0.1,0.1 v -8 c 0,0.055 -0.045,0.1 -0.1,0.1 h 4 c 0.055,0 0.1,-0.045 0.1,-0.1 v -15.0073 c 0,-0.055 -0.045,-0.1 -0.1,-0.1 h -4 -180 -4 c -0.055,0 -0.1,0.045 -0.1,0.1 L 10,178.5 c 0,0.055 0.045,0.1 0.1,0.1 h 4 c -0.055,0 -0.1,-0.045 -0.1,-0.1 v 8 c 0,-0.055 0.045,-0.1 0.1,-0.1 h -4 c -0.055,0 -0.1,0.045 -0.1,0.1 v 8 c 0,0.055 0.045,0.1 0.1,0.1 h 4 c -0.055,0 -0.1,-0.045 -0.1,-0.1 v 8 c 0,-0.055 0.045,-0.1 0.1,-0.1 h -4 c -0.055,0 -0.1,0.045 -0.1,0.1 v 8 c 0,0.055 0.045,0.1 0.1,0.1 h 4 c -0.055,0 -0.1,-0.045 -0.1,-0.1 v 8 c 0,-0.055 0.045,-0.1 0.1,-0.1 h -4 c -0.055,0 -0.1,0.045 -0.1,0.1 v 12 c 0,0.055 0.045,0.1 0.1,0.1 z"
   stroke="#000000"
   stroke-width="0.2"
   id="path2"
   sodipodi:nodetypes="cssccccssssccccssssccccssssccccssssccccssssccccssssccccssssccccssssccccssssccccsscssssccccssssccccssssccccssssccssssccccssssccccssssccccssssc" />
  </g><g
     id="p-2"
     style="display:inline;fill:none;stroke-linecap:round;stroke-linejoin:round"
     transform="rotate(180,100.09339,128.64256)">
    <path
   d="m 14.1,164.4 h 14 c 0.055,0 0.1,-0.045 0.1,-0.1 v -4 c 0,0.055 -0.045,0.1 -0.1,0.1 h 8 c -0.055,0 -0.1,-0.045 -0.1,-0.1 v 4 c 0,0.055 0.045,0.1 0.1,0.1 h 8 c 0.055,0 0.1,-0.045 0.1,-0.1 v -4 c 0,0.055 -0.045,0.1 -0.1,0.1 h 8 c -0.055,0 -0.1,-0.045 -0.1,-0.1 v 4 c 0,0.055 0.045,0.1 0.1,0.1 h 8 c 0.055,0 0.1,-0.045 0.1,-0.1 v -4 c 0,0.055 -0.045,0.1 -0.1,0.1 h 8 c -0.055,0 -0.1,-0.045 -0.1,-0.1 v 4 c 0,0.055 0.045,0.1 0.1,0.1 h 8 c 0.055,0 0.1,-0.045 0.1,-0.1 v -4 c 0,0.055 -0.045,0.1 -0.1,0.1 h 8 c -0.055,0 -0.1,-0.045 -0.1,-0.1 v 4 c 0,0.055 0.045,0.1 0.1,0.1 h 8 c 0.055,0 0.1,-0.045 0.1,-0.1 v -4 c 0,0.055 -0.045,0.1 -0.1,0.1 h 8 c -0.055,0 -0.1,-0.045 -0.1,-0.1 v 4 c 0,0.055 0.045,0.1 0.1,0.1 h 8 c 0.055,0 0.1,-0.045 0.1,-0.1 v -4 c 0,0.055 -0.045,0.1 -0.1,0.1 h 8 c -0.055,0 -0.1,-0.045 -0.1,-0.1 v 4 c 0,0.055 0.045,0.1 0.1,0.1 h 8 c 0.055,0 0.1,-0.045 0.1,-0.1 v -4 c 0,0.055 -0.045,0.1 -0.1,0.1 h 8 c -0.055,0 -0.1,-0.045 -0.1,-0.1 v 4 c 0,0.055 0.045,0.1 0.1,0.1 h 8 c 0.055,0 0.1,-0.045 0.1,-0.1 v -4 c 0,0.055 -0.045,0.1 -0.1,0.1 h 8 c -0.055,0 -0.1,-0.045 -0.1,-0.1 v 4 c 0,0.055 0.045,0.1 0.1,0.1 h 8 c 0.055,0 0.1,-0.045 0.1,-0.1 v -4 c 0,0.055 -0.045,0.1 -0.1,0.1 h 8 c -0.055,0 -0.1,-0.045 -0.1,-0.1 v 4 c 0,0.055 0.045,0.1 0.1,0.1 h 8 c 0.055,0 0.1,-0.045 0.1,-0.1 v -4 c 0,0.055 -0.045,0.1 -0.1,0.1 h 8 c -0.055,0 -0.1,-0.045 -0.1,-0.1 v 4 c 0,0.055 0.045,0.1 0.1,0.1 h 14 4 c 0.055,0 0.1,-0.045 0.1,-0.1 v -12 c 0,-0.055 -0.045,-0.1 -0.1,-0.1 h -4 c 0.055,0 0.1,0.045 0.1,0.1 v -8 c 0,0.055 -0.045,0.1 -0.1,0.1 h 4 c 0.055,0 0.1,-0.045 0.1,-0.1 v -8 c 0,-0.055 -0.045,-0.1 -0.1,-0.1 h -4 c 0.055,0 0.1,0.045 0.1,0.1 v -8 c 0,0.055 -0.045,0.1 -0.1,0.1 h 4 c 0.055,0 0.1,-0.045 0.1,-0.1 v -8 c 0,-0.055 -0.045,-0.1 -0.1,-0.1 h -4 c 0.055,0 0.1,0.045 0.1,0.1 v -8 c 0,0.055 -0.045,0.1 -0.1,0.1 h 4 c 0.055,0 0.1,-0.045 0.1,-0.1 V 97.303448 c 0,-0.055 -0.045,-0.1 -0.1,-0.1 h -4 -180 -4 c -0.055,0 -0.1,0.045 -0.1,0.1 L 10,112.3 c 0,0.055 0.045,0.1 0.1,0.1 h 4 c -0.055,0 -0.1,-0.045 -0.1,-0.1 v 8 c 0,-0.055 0.045,-0.1 0.1,-0.1 h -4 c -0.055,0 -0.1,0.045 -0.1,0.1 v 8 c 0,0.055 0.045,0.1 0.1,0.1 h 4 c -0.055,0 -0.1,-0.045 -0.1,-0.1 v 8 c 0,-0.055 0.045,-0.1 0.1,-0.1 h -4 c -0.055,0 -0.1,0.045 -0.1,0.1 v 8 c 0,0.055 0.045,0.1 0.1,0.1 h 4 c -0.055,0 -0.1,-0.045 -0.1,-0.1 v 8 c 0,-0.055 0.045,-0.1 0.1,-0.1 h -4 c -0.055,0 -0.1,0.045 -0.1,0.1 v 12 c 0,0.055 0.045,0.1 0.1,0.1 z"
   stroke="#000000"
   stroke-width="0.2"
   id="path3"
   sodipodi:nodetypes="cssccccssssccccssssccccssssccccssssccccssssccccssssccccssssccccssssccccssssccccsscssssccccssssccccssssccccssssccssssccccssssccccssssccccssssc" />
  </g><g
     id="p-4"
     style="fill:none;stroke-linecap:round;stroke-linejoin:round"
     transform="rotate(180,284.56216,126.47858)">
    <path
   d="m 204.3,230.6 h 12 c 0.055,0 0.1,-0.045 0.1,-0.1 v -4 c 0,0.055 -0.045,0.1 -0.1,0.1 h 8 c -0.055,0 -0.1,-0.045 -0.1,-0.1 v 4 c 0,0.055 0.045,0.1 0.1,0.1 h 8 c 0.055,0 0.1,-0.045 0.1,-0.1 v -4 c 0,0.055 -0.045,0.1 -0.1,0.1 h 8 c -0.055,0 -0.1,-0.045 -0.1,-0.1 v 4 c 0,0.055 0.045,0.1 0.1,0.1 h 8 c 0.055,0 0.1,-0.045 0.1,-0.1 v -4 c 0,0.055 -0.045,0.1 -0.1,0.1 h 8 c -0.055,0 -0.1,-0.045 -0.1,-0.1 v 4 c 0,0.055 0.045,0.1 0.1,0.1 h 8 c 0.055,0 0.1,-0.045 0.1,-0.1 v -4 c 0,0.055 -0.045,0.1 -0.1,0.1 h 8 c -0.055,0 -0.1,-0.045 -0.1,-0.1 v 4 c 0,0.055 0.045,0.1 0.1,0.1 h 12 c 0.055,0 0.1,-0.045 0.1,-0.1 v -12 c 0,0.055 -0.045,0.1 -0.1,0.1 h 4 c 0.055,0 0.1,-0.045 0.1,-0.1 v -8 c 0,-0.055 -0.045,-0.1 -0.1,-0.1 h -4 c 0.055,0 0.1,0.045 0.1,0.1 v -8 c 0,0.055 -0.045,0.1 -0.1,0.1 h 4 c 0.055,0 0.1,-0.045 0.1,-0.1 v -8 c 0,-0.055 -0.045,-0.1 -0.1,-0.1 h -4 c 0.055,0 0.1,0.045 0.1,0.1 v -8 c 0,0.055 -0.045,0.1 -0.1,0.1 h 4 c 0.055,0 0.1,-0.045 0.1,-0.1 v -8 c 0,-0.055 -0.045,-0.1 -0.1,-0.1 h -4 c 0.055,0 0.1,0.045 0.1,0.1 v -15.04423 c 0,-0.055 -0.045,-0.1 -0.1,-0.1 h -80 c -0.055,0 -0.1,0.045 -0.1,0.1 V 178.5 c 0,-0.055 0.045,-0.1 0.1,-0.1 h -4 c -0.055,0 -0.1,0.045 -0.1,0.1 v 8 c 0,0.055 0.045,0.1 0.1,0.1 h 4 c -0.055,0 -0.1,-0.045 -0.1,-0.1 v 8 c 0,-0.055 0.045,-0.1 0.1,-0.1 h -4 c -0.055,0 -0.1,0.045 -0.1,0.1 v 8 c 0,0.055 0.045,0.1 0.1,0.1 h 4 c -0.055,0 -0.1,-0.045 -0.1,-0.1 v 8 c 0,-0.055 0.045,-0.1 0.1,-0.1 h -4 c -0.055,0 -0.1,0.045 -0.1,0.1 v 8 c 0,0.055 0.045,0.1 0.1,0.1 h 4 c -0.055,0 -0.1,-0.045 -0.1,-0.1 v 12 c 0,0.055 0.045,0.1 0.1,0.1 z"
   stroke="#000000"
   stroke-width="0.2"
   id="path5"
   sodipodi:nodetypes="sssccccssssccccssssccccssssccccssssccssssccccssssccccssssccssssccssssccccssssccccssssccss" />
  </g><g
     id="p-5"
     style="fill:none;stroke-linecap:round;stroke-linejoin:round"
     transform="rotate(180,99.690478,47.683835)">
    <path
   d="m -75.523446,72.868966 h 12 c 0.055,0 0.1,-0.045 0.1,-0.1 v -4 c 0,0.055 -0.045,0.1 -0.1,0.1 h 8 c -0.055,0 -0.1,-0.045 -0.1,-0.1 v 4 c 0,0.055 0.045,0.1 0.1,0.1 h 8 c 0.055,0 0.1,-0.045 0.1,-0.1 v -4 c 0,0.055 -0.045,0.1 -0.1,0.1 h 8 c -0.055,0 -0.1,-0.045 -0.1,-0.1 v 4 c 0,0.055 0.045,0.1 0.1,0.1 h 8 c 0.055,0 0.1,-0.045 0.1,-0.1 v -4 c 0,0.055 -0.045,0.1 -0.1,0.1 h 8 c -0.055,0 -0.1,-0.045 -0.1,-0.1 v 4 c 0,0.055 0.045,0.1 0.1,0.1 h 8 c 0.055,0 0.1,-0.045 0.1,-0.1 v -4 c 0,0.055 -0.045,0.1 -0.1,0.1 h 7.9999995 c -0.055,0 -0.1,-0.045 -0.1,-0.1 v 4 c 0,0.055 0.045,0.1 0.1,0.1 h 12 c 0.055,0 0.1,-0.045 0.1,-0.1 v -12 c 0,0.055 -0.045,0.1 -0.1,0.1 h 4 c 0.055,0 0.1,-0.045 0.1,-0.1 v -8 c 0,-0.055 -0.045,-0.1 -0.1,-0.1 h -4 c 0.055,0 0.1,0.045 0.1,0.1 v -8 c 0,0.055 -0.045,0.1 -0.1,0.1 h 4 c 0.055,0 0.1,-0.045 0.1,-0.1 v -8 c 0,-0.055 -0.045,-0.1 -0.1,-0.1 h -4 c 0.055,0 0.1,0.045 0.1,0.1 v -8 c 0,0.055 -0.045,0.1 -0.1,0.1 h 4 c 0.055,0 0.1,-0.045 0.1,-0.1 v -8 c 0,-0.055 -0.045,-0.1 -0.1,-0.1 h -4 c 0.055,0 0.1,0.045 0.1,0.1 V 5.8025311 c 0,-0.055 -0.045,-0.1 -0.1,-0.1 H -75.523446 c -0.055,0 -0.1,0.045 -0.1,0.1 V 20.768966 c 0,-0.055 0.045,-0.1 0.1,-0.1 h -4 c -0.055,0 -0.1,0.045 -0.1,0.1 v 8 c 0,0.055 0.045,0.1 0.1,0.1 h 4 c -0.055,0 -0.1,-0.045 -0.1,-0.1 v 8 c 0,-0.055 0.045,-0.1 0.1,-0.1 h -4 c -0.055,0 -0.1,0.045 -0.1,0.1 v 8 c 0,0.055 0.045,0.1 0.1,0.1 h 4 c -0.055,0 -0.1,-0.045 -0.1,-0.1 v 8 c 0,-0.055 0.045,-0.1 0.1,-0.1 h -4 c -0.055,0 -0.1,0.045 -0.1,0.1 v 8 c 0,0.055 0.045,0.1 0.1,0.1 h 4 c -0.055,0 -0.1,-0.045 -0.1,-0.1 v 12 c 0,0.055 0.045,0.1 0.1,0.1 z"
   stroke="#000000"
   stroke-width="0.2"
   id="path6"
   sodipodi:nodetypes="sssccccssssccccssssccccssssccccssssccssssccccssssccccssssccssssccssssccccssssccccssssccss" />
  </g><g
     id="p-3-2"
     style="fill:none;stroke-linecap:round;stroke-linejoin:round"
     transform="translate(-8.387307,-7.3309284)">
    <path
   d="m 14.1,94.2 h 14 C 28.045,94.2 28,94.155 28,94.1 v 4 c 0,0.055 0.045,0.1 0.1,0.1 h 8 c 0.055,0 0.1,-0.045 0.1,-0.1 v -4 c 0,0.055 -0.045,0.1 -0.1,0.1 h 8 C 44.045,94.2 44,94.155 44,94.1 v 4 c 0,0.055 0.045,0.1 0.1,0.1 h 8 c 0.055,0 0.1,-0.045 0.1,-0.1 v -4 c 0,0.055 -0.045,0.1 -0.1,0.1 h 8 C 60.045,94.2 60,94.155 60,94.1 v 4 c 0,0.055 0.045,0.1 0.1,0.1 h 8 c 0.055,0 0.1,-0.045 0.1,-0.1 v -4 c 0,0.055 -0.045,0.1 -0.1,0.1 h 8 C 76.045,94.2 76,94.155 76,94.1 v 4 c 0,0.055 0.045,0.1 0.1,0.1 h 8 c 0.055,0 0.1,-0.045 0.1,-0.1 v -4 c 0,0.055 -0.045,0.1 -0.1,0.1 h 8 C 92.045,94.2 92,94.155 92,94.1 v 4 c 0,0.055 0.045,0.1 0.1,0.1 h 8 c 0.055,0 0.1,-0.045 0.1,-0.1 v -4 c 0,0.055 -0.045,0.1 -0.1,0.1 h 8 c -0.055,0 -0.1,-0.045 -0.1,-0.1 v 4 c 0,0.055 0.045,0.1 0.1,0.1 h 8 c 0.055,0 0.1,-0.045 0.1,-0.1 v -4 c 0,0.055 -0.045,0.1 -0.1,0.1 h 8 c -0.055,0 -0.1,-0.045 -0.1,-0.1 v 4 c 0,0.055 0.045,0.1 0.1,0.1 h 8 c 0.055,0 0.1,-0.045 0.1,-0.1 v -4 c 0,0.055 -0.045,0.1 -0.1,0.1 h 8 c -0.055,0 -0.1,-0.045 -0.1,-0.1 v 4 c 0,0.055 0.045,0.1 0.1,0.1 h 8 c 0.055,0 0.1,-0.045 0.1,-0.1 v -4 c 0,0.055 -0.045,0.1 -0.1,0.1 h 8 c -0.055,0 -0.1,-0.045 -0.1,-0.1 v 4 c 0,0.055 0.045,0.1 0.1,0.1 h 8 c 0.055,0 0.1,-0.045 0.1,-0.1 v -4 c 0,0.055 -0.045,0.1 -0.1,0.1 h 8 c -0.055,0 -0.1,-0.045 -0.1,-0.1 v 4 c 0,0.055 0.045,0.1 0.1,0.1 h 8 c 0.055,0 0.1,-0.045 0.1,-0.1 v -4 c 0,0.055 -0.045,0.1 -0.1,0.1 h 14 c 0.055,0 0.1,-0.045 0.1,-0.1 v -12 c 0,0.055 -0.045,0.1 -0.1,0.1 h 4 c 0.055,0 0.1,-0.045 0.1,-0.1 v -8 c 0,-0.055 -0.045,-0.1 -0.1,-0.1 h -4 c 0.055,0 0.1,0.045 0.1,0.1 v -8 c 0,0.055 -0.045,0.1 -0.1,0.1 h 4 c 0.055,0 0.1,-0.045 0.1,-0.1 v -8 c 0,-0.055 -0.045,-0.1 -0.1,-0.1 h -4 c 0.055,0 0.1,0.045 0.1,0.1 v -8 c 0,0.055 -0.045,0.1 -0.1,0.1 h 4 c 0.055,0 0.1,-0.045 0.1,-0.1 v -8 c 0,-0.055 -0.045,-0.1 -0.1,-0.1 h -4 c 0.055,0 0.1,0.045 0.1,0.1 v -8 c 0,0.055 -0.045,0.1 -0.1,0.1 h 4 c 0.055,0 0.1,-0.045 0.1,-0.1 v -8 c 0,-0.055 -0.045,-0.1 -0.1,-0.1 h -4 c 0.055,0 0.1,0.045 0.1,0.1 v -12 c 0,-0.055 -0.045,-0.1 -0.1,-0.1 h -14 c 0.055,0 0.1,0.045 0.1,0.1 v -4 c 0,-0.055 -0.045,-0.1 -0.1,-0.1 h -8 c -0.055,0 -0.1,0.045 -0.1,0.1 v 4 c 0,-0.055 0.045,-0.1 0.1,-0.1 h -8 c 0.055,0 0.1,0.045 0.1,0.1 v -4 c 0,-0.055 -0.045,-0.1 -0.1,-0.1 h -8 c -0.055,0 -0.1,0.045 -0.1,0.1 v 4 c 0,-0.055 0.045,-0.1 0.1,-0.1 h -8 c 0.055,0 0.1,0.045 0.1,0.1 v -4 c 0,-0.055 -0.045,-0.1 -0.1,-0.1 h -8 c -0.055,0 -0.1,0.045 -0.1,0.1 v 4 c 0,-0.055 0.045,-0.1 0.1,-0.1 h -8 c 0.055,0 0.1,0.045 0.1,0.1 v -4 c 0,-0.055 -0.045,-0.1 -0.1,-0.1 h -8 c -0.055,0 -0.1,0.045 -0.1,0.1 v 4 c 0,-0.055 0.045,-0.1 0.1,-0.1 h -8 c 0.055,0 0.1,0.045 0.1,0.1 v -4 c 0,-0.055 -0.045,-0.1 -0.1,-0.1 h -8 c -0.055,0 -0.1,0.045 -0.1,0.1 v 4 c 0,-0.055 0.045,-0.1 0.1,-0.1 h -8 c 0.055,0 0.1,0.045 0.1,0.1 v -4 c 0,-0.055 -0.045,-0.1 -0.1,-0.1 h -8 C 92.045,10 92,10.045 92,10.1 v 4 C 92,14.045 92.045,14 92.1,14 h -8 c 0.055,0 0.1,0.045 0.1,0.1 v -4 C 84.2,10.045 84.155,10 84.1,10 h -8 C 76.045,10 76,10.045 76,10.1 v 4 C 76,14.045 76.045,14 76.1,14 h -8 c 0.055,0 0.1,0.045 0.1,0.1 v -4 C 68.2,10.045 68.155,10 68.1,10 h -8 C 60.045,10 60,10.045 60,10.1 v 4 C 60,14.045 60.045,14 60.1,14 h -8 c 0.055,0 0.1,0.045 0.1,0.1 v -4 C 52.2,10.045 52.155,10 52.1,10 h -8 C 44.045,10 44,10.045 44,10.1 v 4 C 44,14.045 44.045,14 44.1,14 h -8 c 0.055,0 0.1,0.045 0.1,0.1 v -4 C 36.2,10.045 36.155,10 36.1,10 h -8 C 28.045,10 28,10.045 28,10.1 v 4 C 28,14.045 28.045,14 28.1,14 h -14 C 14.045,14 14,14.045 14,14.1 v 12 C 14,26.045 14.045,26 14.1,26 h -4 C 10.045,26 10,26.045 10,26.1 v 8 c 0,0.055 0.045,0.1 0.1,0.1 h 4 C 14.045,34.2 14,34.155 14,34.1 v 8 C 14,42.045 14.045,42 14.1,42 h -4 C 10.045,42 10,42.045 10,42.1 v 8 c 0,0.055 0.045,0.1 0.1,0.1 h 4 C 14.045,50.2 14,50.155 14,50.1 v 8 C 14,58.045 14.045,58 14.1,58 h -4 C 10.045,58 10,58.045 10,58.1 v 8 c 0,0.055 0.045,0.1 0.1,0.1 h 4 C 14.045,66.2 14,66.155 14,66.1 v 8 C 14,74.045 14.045,74 14.1,74 h -4 C 10.045,74 10,74.045 10,74.1 v 8 c 0,0.055 0.045,0.1 0.1,0.1 h 4 C 14.045,82.2 14,82.155 14,82.1 v 12 c 0,0.055 0.045,0.1 0.1,0.1 z"
   stroke="#000000"
   stroke-width="0.2"
   id="path4-7"
   style="display:inline" />
  </g><path
     d="m 135.56232,51.194828 c 0.98032,0.79604 1.60718,2.01351 1.60718,3.37599 0,1.36249 -0.62686,2.57845 -1.60718,3.376 m -0.91386,-5.62624 c 0.65254,0.53169 1.07095,1.34283 1.07095,2.25065 0,0.90782 -0.34524,1.65625 -0.99778,2.18794 m -0.98703,-3.31327 c 0.30385,0.17178 0.53472,0.67067 0.53472,1.12533 0,0.45467 -0.20996,0.85948 -0.53472,1.12534 m -1.68422,-4.46659 c 0.17371,0.0785 0.28549,0.25075 0.28549,0.44107 v 5.80037 c 0,0.19032 -0.11178,0.36252 -0.28549,0.44106 -0.17371,0.0785 -0.37763,0.0469 -0.51962,-0.0801 l -2.03767,-1.81111 h -1.02412 c -0.53322,0 -0.96673,-0.43351 -0.96673,-0.96672 v -0.96673 c 0,-0.53321 0.43351,-0.96673 0.96673,-0.96673 h 1.02412 l 2.03767,-1.8111 c 0.14199,-0.12689 0.34591,-0.1571 0.51962,-0.0801 z"
     id="path1-75-0"
     style="display:inline;fill:none;stroke:#277ca1;stroke-width:0.615;stroke-dasharray:none;stroke-opacity:1"
     sodipodi:nodetypes="csccsccsccsscccsssscccc" /><path
     d="m 116.58979,53.434518 c 0.30385,0.17178 0.53472,0.67067 0.53472,1.12533 0,0.45467 -0.20996,0.85948 -0.53472,1.12534 m -1.68422,-4.46659 c 0.17371,0.0785 0.28549,0.25075 0.28549,0.44107 v 5.80037 c 0,0.19032 -0.11178,0.36252 -0.28549,0.44106 -0.17371,0.0785 -0.37763,0.0469 -0.51962,-0.0801 l -2.03768,-1.81111 h -1.02412 c -0.53322,0 -0.96673,-0.43351 -0.96673,-0.96672 v -0.96673 c 0,-0.53321 0.43351,-0.96673 0.96673,-0.96673 h 1.02412 l 2.03768,-1.8111 c 0.14199,-0.12689 0.34591,-0.1571 0.51962,-0.0801 z"
     id="path1-7-9"
     style="display:inline;fill:none;stroke:#277ca1;stroke-width:0.615;stroke-dasharray:none;stroke-opacity:1"
     sodipodi:nodetypes="csccsscccsssscccc" /><path
     d="m 98.085274,58.202278 v -3.42475 l -0.20587,0.17181 -3.43704,2.86421 c -0.17006,0.14141 -0.40815,0.17364 -0.61044,0.0788 -0.20228,-0.0948 -0.32939,-0.29716 -0.32939,-0.51913 v -5.72841 c 0,-0.22198 0.12889,-0.42426 0.32939,-0.51914 0.2005,-0.0948 0.43859,-0.0644 0.61044,0.0788 l 3.43704,2.86418 0.20587,0.17186 -0.0136,-3.42472"
     id="path1-5-3"
     style="display:inline;fill:none;stroke:#277ca1;stroke-width:0.545209;stroke-dasharray:none;stroke-opacity:1"
     sodipodi:nodetypes="ccccsssccccc" /><path
     d="m 74.945896,50.819518 v 3.42476 l 0.205864,-0.17181 3.437046,-2.86421 c 0.170063,-0.14142 0.408148,-0.17364 0.610433,-0.0788 0.202284,0.0948 0.329385,0.29716 0.329385,0.51913 v 5.72841 c 0,0.22197 -0.128888,0.42426 -0.329385,0.51914 -0.200494,0.0948 -0.43858,0.0644 -0.610433,-0.0788 l -3.437046,-2.86418 -0.205864,-0.17186 0.01359,3.42472"
     id="path1-5-6-6"
     style="display:inline;fill:none;stroke:#277ca1;stroke-width:0.545209;stroke-dasharray:none;stroke-opacity:1"
     sodipodi:nodetypes="ccccsssccccc" /><path
     d="m 56.391661,51.287138 c -0.225091,-0.1384 -0.507971,-0.14295 -0.737623,-0.0136 -0.229648,0.12927 -0.37261,0.37262 -0.37261,0.63725 v 5.35344 c 0,0.26464 0.142962,0.50798 0.37261,0.63725 0.229652,0.12927 0.512532,0.12319 0.737623,-0.0137 l 4.380102,-2.67673 c 0.217482,-0.13231 0.349799,-0.36804 0.349799,-0.62355 0,-0.25551 -0.132317,-0.48972 -0.349799,-0.62356 z"
     id="path1-3-3-0"
     style="display:inline;fill:none;fill-opacity:1;stroke:#277ca1;stroke-width:0.546469;stroke-dasharray:none;stroke-opacity:1" /><path
     style="display:inline;fill:none;fill-opacity:1;stroke:#277ca1;stroke-width:0.617;stroke-linecap:round;stroke-linejoin:round;stroke-dasharray:none;stroke-opacity:1"
     d="m 62.631653,51.173718 c 0,7.2137 0.0072,6.8165 0.0072,6.8165"
     id="path20-5-6"
     sodipodi:nodetypes="cc" /><path
     style="display:inline;fill:none;fill-opacity:1;stroke:#277ca1;stroke-width:0.617;stroke-linecap:round;stroke-linejoin:round;stroke-dasharray:none;stroke-opacity:1"
     d="m 64.109872,51.173718 v 6.76752"
     id="path21-6-2"
     sodipodi:nodetypes="cc" /><g
     id="g9"
     transform="translate(9.8199482,41.353957)">
    <path
   style="fill:none;stroke:#a13aa1;stroke-width:0.758332;stroke-linecap:square"
   d="m 55.940165,29.732072 c -0.590946,2.762749 -3.046252,4.834376 -5.985411,4.834376 -3.06497,0 -5.4358,-2.195037 -5.995144,-4.896449 L 43.9316,27.205971 c 0.590345,-3.474292 3.869328,-4.772 6.023155,-4.881191 2.919842,-0.148025 5.368442,2.04974 5.975865,4.790535 z"
   id="circle14-61"
   sodipodi:nodetypes="csccscc" />
    <path
   style="fill:none;stroke:#a13aa1;stroke-width:0.758332;stroke-linecap:square"
   d="m 74.011513,29.749807 c -0.590946,2.762749 -3.046252,4.834376 -5.985411,4.834376 -3.06497,0 -5.4358,-2.195037 -5.995144,-4.896449 l -0.02801,-2.464028 c 0.590345,-3.474292 3.869328,-4.772 6.023155,-4.881191 2.919842,-0.148025 5.368442,2.04974 5.975865,4.790535 z"
   id="circle14-6"
   sodipodi:nodetypes="csccscc" />
    <path
   style="fill:none;stroke:#a13aa1;stroke-width:0.758332;stroke-linecap:square"
   d="m 91.973462,29.345803 c -0.590946,2.762749 -3.046252,4.834376 -5.985411,4.834376 -3.06497,0 -5.4358,-2.195037 -5.995144,-4.896449 l -0.02801,-2.464028 c 0.590345,-3.474292 3.869328,-4.772 6.023155,-4.881191 2.919842,-0.148025 5.368442,2.04974 5.975865,4.790535 z"
   id="circle14-2"
   sodipodi:nodetypes="csccscc" />
    <path
   style="fill:none;stroke:#a13aa1;stroke-width:0.758332;stroke-linecap:square"
   d="m 109.99001,29.345803 c -0.59095,2.762749 -3.04626,4.834376 -5.98542,4.834376 -3.06497,0 -5.435795,-2.195037 -5.995139,-4.896449 l -0.02801,-2.464028 c 0.590345,-3.474292 3.869329,-4.772 6.023159,-4.881191 2.91984,-0.148025 5.36844,2.04974 5.97586,4.790535 z"
   id="circle14-3"
   sodipodi:nodetypes="csccscc" />
    <path
   style="fill:none;stroke:#a13aa1;stroke-width:0.758332;stroke-linecap:square"
   d="m 127.99918,29.345803 c -0.59095,2.762749 -3.04625,4.834376 -5.98541,4.834376 -3.06497,0 -5.4358,-2.195037 -5.99514,-4.896449 l -0.028,-2.464028 c 0.59034,-3.474292 3.86932,-4.772 6.02315,-4.881191 2.91984,-0.148025 5.36844,2.04974 5.97587,4.790535 z"
   id="circle14-26"
   sodipodi:nodetypes="csccscc" />
  </g><path
     id="circle14-26-6"
     style="fill:none;stroke:#a13aa1;stroke-width:0.393245;stroke-linecap:square"
     d="m 95.844279,153.1214 a 2.1230383,2.1230383 0 0 0 -2.122868,2.12339 2.1230383,2.1230383 0 0 0 0.702283,1.57613 c -0.131483,0.6003 -0.228961,1.32817 -0.273368,2.2009 l -0.04496,1.04645 3.47524,0.0439 -0.02532,-1.17667 c -0.05096,-0.76779 -0.147845,-1.48967 -0.280087,-2.12339 a 2.1230383,2.1230383 0 0 0 0.691948,-1.56734 2.1230383,2.1230383 0 0 0 -2.122868,-2.12339 z" /></g><g
   inkscape:groupmode="layer"
   id="layer2"
   inkscape:label="Zeichnung" /></svg>
